<svg xmlns="http://www.w3.org/2000/svg" width="179" height="178" fill="none"><g filter="url(#a)"><path fill="url(#b)" d="M53.25 170.25c44.91 19.86 97.416-.447 117.276-45.356 19.86-44.91-.446-97.415-45.356-117.275-44.909-19.86-97.415.446-117.275 45.355-19.86 44.91.446 97.416 45.356 117.276Z"/></g><path fill="url(#c)" d="M108.37 83.692c.817-5.534-3.342-8.509-9.03-10.493l1.845-7.497-4.504-1.137-1.796 7.3c-1.184-.3-2.4-.582-3.61-.861l1.81-7.347-4.502-1.137-1.846 7.493c-.98-.226-1.943-.45-2.877-.685l.006-.023-6.213-1.571-1.198 4.874s3.342.775 3.272.823c1.824.462 2.154 1.685 2.099 2.654l-2.102 8.54c.126.033.289.08.468.153-.15-.038-.31-.08-.475-.12L76.77 96.62c-.223.562-.79 1.404-2.064 1.084.044.066-3.274-.828-3.274-.828l-2.237 5.224 5.862 1.48c1.09.277 2.16.567 3.211.839l-1.864 7.583 4.5 1.137 1.846-7.502c1.229.338 2.422.65 3.59.944l-1.84 7.466 4.504 1.138 1.864-7.568c7.681 1.472 13.457.878 15.888-6.159 1.959-5.667-.097-8.936-4.138-11.067 2.943-.688 5.16-2.649 5.751-6.7Zm-10.292 14.62c-1.392 5.667-10.81 2.603-13.864 1.835l2.474-10.045c3.053.772 12.845 2.3 11.39 8.21Zm1.393-14.702c-1.27 5.155-9.109 2.536-11.651 1.894l2.242-9.11c2.543.641 10.732 1.84 9.41 7.216Z"/><defs><radialGradient id="b" cx="0" cy="0" r="1" gradientTransform="matrix(-173.61288 21.96627 -19.96254 -157.77614 161.911 79.507)" gradientUnits="userSpaceOnUse"><stop stop-color="#FF994F"/><stop offset=".719" stop-color="#EB6E53"/><stop offset=".896" stop-color="#DEFFFB"/></radialGradient><linearGradient id="c" x1="69.532" x2="108.09" y1="71.411" y2="115.611" gradientUnits="userSpaceOnUse"><stop stop-color="#6F3500" stop-opacity=".34"/><stop offset="1" stop-color="#B55700" stop-opacity="0"/></linearGradient><filter id="a" width="177.869" height="177.869" x=".276" y="0" color-interpolation-filters="sRGB" filterUnits="userSpaceOnUse"><feFlood flood-opacity="0" result="BackgroundImageFix"/><feBlend in="SourceGraphic" in2="BackgroundImageFix" result="shape"/><feColorMatrix in="SourceAlpha" result="hardAlpha" values="0 0 0 0 0 0 0 0 0 0 0 0 0 0 0 0 0 0 127 0"/><feOffset/><feGaussianBlur stdDeviation="12.62"/><feComposite in2="hardAlpha" k2="-1" k3="1" operator="arithmetic"/><feColorMatrix values="0 0 0 0 0.917667 0 0 0 0 0.683333 0 0 0 0 1 0 0 0 0.65 0"/><feBlend in2="shape" result="effect1_innerShadow"/></filter></defs></svg>