<svg xmlns="http://www.w3.org/2000/svg" width="168" height="168" fill="none"><g filter="url(#a)"><path fill="url(#b)" d="M27.215 145.899C-6.97 114.537-9.26 61.401 22.101 27.215 53.462-6.97 106.6-9.26 140.784 22.101c34.186 31.361 36.476 84.498 5.115 118.683-31.362 34.186-84.498 36.476-118.684 5.115Z"/></g><g fill="#fff" opacity=".1"><path fill-opacity=".68" d="m77.975 60.318-.028 1.18 8.51 31.759.407.235 12.407-12.664-21.296-20.51Z"/><path fill-opacity=".333" d="m77.975 60.318-8.188 28.41 17.077 4.764-4.13-15.415-4.759-17.76Z"/><path fill-opacity=".68" d="m87.612 96.284-.122.27 3.031 11.313.323.481 9.185-24.726-12.417 12.662Z"/><path fill-opacity=".333" d="m90.844 108.347-3.232-12.064-17.076-4.76 20.308 16.824Z"/><path d="M86.864 93.49 99.27 80.827l-16.537-2.75 4.13 15.413Z"/><path fill-opacity=".68" d="m69.788 88.728 17.076 4.764-4.13-15.415-12.946 10.65Z"/></g><defs><radialGradient id="b" cx="0" cy="0" r="1" gradientTransform="rotate(-1.4 3504.765 -561.74) scale(165.287 178.67)" gradientUnits="userSpaceOnUse"><stop stop-color="#386480"/><stop offset=".682" stop-color="#5B4BB9"/><stop offset=".932" stop-color="#F9FDFF"/></radialGradient><filter id="a" width="168" height="168" x="0" y="0" color-interpolation-filters="sRGB" filterUnits="userSpaceOnUse"><feFlood flood-opacity="0" result="BackgroundImageFix"/><feBlend in="SourceGraphic" in2="BackgroundImageFix" result="shape"/><feColorMatrix in="SourceAlpha" result="hardAlpha" values="0 0 0 0 0 0 0 0 0 0 0 0 0 0 0 0 0 0 127 0"/><feOffset/><feGaussianBlur stdDeviation="23"/><feComposite in2="hardAlpha" k2="-1" k3="1" operator="arithmetic"/><feColorMatrix values="0 0 0 0 0.917667 0 0 0 0 0.683333 0 0 0 0 1 0 0 0 0.42 0"/><feBlend in2="shape" result="effect1_innerShadow"/></filter></defs></svg>