<svg xmlns="http://www.w3.org/2000/svg" width="225" height="225" fill="none"><g filter="url(#a)"><path fill="url(#b)" d="M26.913 39.616c40.254-47.268 111.204-52.954 158.472-12.7 47.268 40.254 52.955 111.204 12.701 158.472-40.254 47.268-111.205 52.955-158.473 12.701-47.268-40.254-52.954-111.205-12.7-158.473Z"/></g><path fill="url(#c)" d="m124.61 111.77-5.613-15.154-15.162 5.615-3.266-8.818 23.981-8.882 8.878 23.973-8.818 3.266ZM139 123.548l-3.266-8.818-8.818 3.266 3.266 8.818 8.818-3.266Zm-18.311-3.245-15.154 5.612-5.616-15.162-8.82 3.261.002.005L99.982 138l23.985-8.883-3.278-8.814Zm-23.075-15.767-3.266-8.818-8.818 3.265 3.266 8.819 8.818-3.266Z"/><path fill="url(#d)" d="m106.139 108.446-.002-.001 8.948-3.314 3.311 8.94.004.013-.012.005-8.94 3.311-3.314-8.948-.001-.005.006-.001Z"/><defs><linearGradient id="c" x1="86.296" x2="138.945" y1="98.071" y2="127.493" gradientUnits="userSpaceOnUse"><stop offset=".274" stop-color="#fff" stop-opacity=".28"/><stop offset="1" stop-color="#fff" stop-opacity="0"/></linearGradient><linearGradient id="d" x1="86.296" x2="138.945" y1="98.071" y2="127.493" gradientUnits="userSpaceOnUse"><stop offset=".274" stop-color="#fff" stop-opacity=".28"/><stop offset="1" stop-color="#fff" stop-opacity="0"/></linearGradient><radialGradient id="b" cx="0" cy="0" r="1" gradientTransform="rotate(-141.44 123.433 54.468) scale(241.271 214.882)" gradientUnits="userSpaceOnUse"><stop stop-color="#e46d05"/><stop offset=".693" stop-color="#d7c21f"/><stop offset=".88" stop-color="#b3c423"/></radialGradient><filter id="a" width="224.837" height="224.837" x=".081" y=".084" color-interpolation-filters="sRGB" filterUnits="userSpaceOnUse"><feFlood flood-opacity="0" result="BackgroundImageFix"/><feBlend in="SourceGraphic" in2="BackgroundImageFix" result="shape"/><feColorMatrix in="SourceAlpha" result="hardAlpha" values="0 0 0 0 0 0 0 0 0 0 0 0 0 0 0 0 0 0 127 0"/><feOffset/><feGaussianBlur stdDeviation="16.5"/><feComposite in2="hardAlpha" k2="-1" k3="1" operator="arithmetic"/><feColorMatrix values="0 0 0 0 0.844 0 0 0 0 0.5125 0 0 0 0 1 0 0 0 0.56 0"/><feBlend in2="shape" result="effect1_innerShadow"/></filter></defs></svg>