<svg xmlns="http://www.w3.org/2000/svg" width="198" height="198" fill="none"><path fill="url(#a)" d="M179.592 156.484c31.747-44.509 21.402-106.328-23.108-138.076C111.975-13.339 50.156-2.994 18.408 41.516c-31.747 44.51-21.402 106.328 23.108 138.076 44.51 31.747 106.328 21.402 138.076-23.108Z"/><path fill="url(#b)" fill-rule="evenodd" d="M119.011 83.106 95.035 73.37 74.614 89.263l3.554 25.631 23.976 9.737 20.421-15.894-3.554-25.63Zm-1.691 1.316-21.99-8.93L76.6 90.068l3.26 23.509 21.989 8.931 18.731-14.578-3.26-23.509Z" clip-rule="evenodd"/><path fill="url(#c)" d="m87.539 85.668-.724 9.585 21.47-2.977-3.304-9.027-17.442 2.419Z"/><path fill="url(#d)" d="m94.88 100.402.08 5.591 9.089-1.261-1.442-5.402 1.307-5.173-11.7 1.623 2.665 4.622Z"/><path fill="url(#e)" d="m93.029 100.659-5.806-2.468-5.18 5.045 9.956 12.596 3.32-.46 3.225-3.942-.242-1.741-4.45-3.099-.823-5.931Z"/><path fill="url(#f)" d="m104.457 99.074 4.915-3.954 6.358 3.444-6.153 14.831-3.32.46-4.176-2.915-.241-1.741 3.44-4.194-.823-5.931Z"/><defs><linearGradient id="b" x1="120" x2="73" y1="74" y2="128" gradientUnits="userSpaceOnUse"><stop stop-color="#68DBFF" stop-opacity=".26"/><stop offset="1" stop-color="#48D3FF" stop-opacity="0"/></linearGradient><linearGradient id="c" x1="120" x2="73" y1="74" y2="128" gradientUnits="userSpaceOnUse"><stop stop-color="#68DBFF" stop-opacity=".26"/><stop offset="1" stop-color="#48D3FF" stop-opacity="0"/></linearGradient><linearGradient id="d" x1="120" x2="73" y1="74" y2="128" gradientUnits="userSpaceOnUse"><stop stop-color="#68DBFF" stop-opacity=".26"/><stop offset="1" stop-color="#48D3FF" stop-opacity="0"/></linearGradient><linearGradient id="e" x1="120" x2="73" y1="74" y2="128" gradientUnits="userSpaceOnUse"><stop stop-color="#68DBFF" stop-opacity=".26"/><stop offset="1" stop-color="#48D3FF" stop-opacity="0"/></linearGradient><linearGradient id="f" x1="120" x2="73" y1="74" y2="128" gradientUnits="userSpaceOnUse"><stop stop-color="#68DBFF" stop-opacity=".26"/><stop offset="1" stop-color="#48D3FF" stop-opacity="0"/></linearGradient><radialGradient id="a" cx="0" cy="0" r="1" gradientTransform="rotate(-34.614 276.792 85.559) scale(240.519)" gradientUnits="userSpaceOnUse"><stop offset=".474" stop-color="#07090F"/><stop offset=".703" stop-color="#07193E"/><stop offset=".926" stop-color="#015980"/></radialGradient></defs></svg>